<?xml version="1.0" encoding="UTF-8"?>
<svg width="37px" height="40px" viewBox="0 0 37 40" version="1.1" xmlns="http://www.w3.org/2000/svg" xmlns:xlink="http://www.w3.org/1999/xlink">
    <!-- Generator: Sketch 64 (93537) - https://sketch.com -->
    <title>logo</title>
    <desc>Created with Sketch.</desc>
    <defs>
        <rect id="path-1" x="0" y="0.5" width="48" height="48"></rect>
    </defs>
    <g id="Assets" stroke="none" stroke-width="1" fill="none" fill-rule="evenodd">
        <g id="Desktop-HD" transform="translate(-395.000000, -141.000000)">
            <g id="logo" transform="translate(390.000000, 137.000000)">
                <g id="favicon">
                    <mask id="mask-2" fill="white">
                        <use xlink:href="#path-1"></use>
                    </mask>
                    <g id="container"></g>
                    <g id="Group-2" mask="url(#mask-2)">
                        <g transform="translate(5.000000, 4.000000)">
                            <g id="fish-circle" transform="translate(12.000000, 15.000000)">
                                <circle id="Oval" fill="#F58200" cx="12.5" cy="12.5" r="12.5"></circle>
                                <g id="fish" transform="translate(4.000000, 9.000000)">
                                    <g>
                                        <path d="M17.3245416,1.22902557 C18.5551525,2.49738495 17.8236179,6.01269108 17.3245416,6.51870222 C16.8254653,7.02471336 16.3244073,4.71712936 13.8842421,4.71712936 C11.4440768,4.71712936 11.1392487,6.16051667 8.96735556,6.51870222 C6.79546241,6.87688777 5.86518098,7.21375841 3.43453398,6.51870222 C2.30867566,6.19675716 6.5032725e-15,5.03054103 6.5032725e-15,4.38911528 C6.5032725e-15,3.1942248 1.85485306,2.32394406 3.43453398,1.73914028 C5.01421491,1.15433651 6.13773852,0.974565483 8.44341214,1.22902557 C10.7490858,1.48348567 12.1215065,2.97287277 13.8842421,2.97287277 C15.6469776,2.97287277 16.0939308,-0.0393338006 17.3245416,1.22902557 Z" id="Path" fill="#383736"></path>
                                        <path d="M7.95316305,1.65793305e-14 C7.62031704,0.382766671 7.45389403,0.688539559 7.45389403,0.917318666 C7.45389403,1.14609777 7.62031704,1.30968437 7.95316305,1.40807845 L4.7352675,1.40807845 C5.18332104,0.921126558 5.59276697,0.596515378 5.96360527,0.434244909 C6.33444357,0.271974441 6.9976295,0.127226138 7.95316305,1.65793305e-14 Z" id="Triangle" fill="#383736"></path>
                                        <ellipse id="Oval" fill="#FFFFFF" cx="2.91926475" cy="3.30391178" rx=".5" ry=".5"></ellipse>
                                    </g>
                                </g>
                            </g>
                            <g id="krab-circle">
                                <circle id="Oval-Copy" fill="#00C0FF" cx="12.5" cy="12.5" r="12.5"></circle>
                                <g id="crab" transform="translate(3.000000, 4.000000)" fill="#383736">
                                    <g>
                                        <ellipse id="body" cx="9.35820896" cy="10.2068966" rx="4.25373134" ry="4.13793103"></ellipse>
                                        <g id="eyes" transform="translate(7.656716, 5.517241)">
                                            <ellipse id="Oval" cx="0.425373134" cy="0.420000002" rx="1" ry="1"></ellipse>
                                            <ellipse id="Oval-Copy-2" cx="2.69402985" cy="0.420000002" rx="1" ry="1"></ellipse>
                                        </g>
                                        <g id="arms" transform="translate(2.021208, 0.179090)">
                                            <path d="M3.6259817,8.44936841 L1.54405731,7.21371632 L1.11961042,5.02103365 L0.616097875,4.64775745 C0.108092413,3.84366118 -0.0857549095,3.14031997 0.0345559069,2.53773383 C0.154866723,1.93514769 0.658033856,1.08923641 1.54405731,-4.90029473e-16 C1.42355314,0.558534945 1.37156807,1.06346081 1.38810209,1.51477761 C1.40463611,1.9660944 1.50142161,2.68405215 1.67845858,3.66865085 C2.0213676,3.41230929 2.23269296,3.1394 2.31243466,2.84992297 C2.39217635,2.56044595 2.39217635,2.06620527 2.31243466,1.36720095 C2.78348552,2.17806763 3.04043064,2.81094703 3.08327003,3.26583915 C3.12610943,3.72073128 2.97734851,4.23661115 2.6369873,4.81347878 L1.67845858,5.02103365 L2.31243466,5.33815137 L2.12103979,6.76977671 L3.98607762,7.86551322 L3.6259817,8.44936841 Z" id="arm"></path>
                                            <path d="M14.3659681,8.54614047 L12.2840438,7.31048838 L11.8595969,5.11780571 L11.3560843,4.7445295 C10.8480789,3.94043323 10.6542315,3.23709203 10.7745424,2.63450589 C10.8948532,2.03191974 11.3980203,1.18600847 12.2840438,0.0967720547 C12.1635396,0.655307 12.1115545,1.16023287 12.1280885,1.61154966 C12.1446226,2.06286646 12.2414081,2.7808242 12.418445,3.7654229 C12.7613541,3.50908135 12.9726794,3.23617206 13.0524211,2.94669503 C13.1321628,2.657218 13.1321628,2.16297733 13.0524211,1.46397301 C13.523472,2.27483968 13.7804171,2.90771908 13.8232565,3.36261121 C13.8660959,3.81750334 13.717335,4.33338321 13.3769738,4.91025083 L12.418445,5.11780571 L13.0524211,5.43492342 L12.8610262,6.86654876 L14.7260641,7.96228528 L14.3659681,8.54614047 Z" id="arm-copy" transform="translate(12.733025, 4.321456) scale(-1, 1) translate(-12.733025, -4.321456) "></path>
                                        </g>
                                        <g id="legs" transform="translate(0.075117, 6.896552)">
                                            <polygon id="leg" points="5.45473421 2.62068966 3.42323482 2.18601361 1.05921182 0.0508521745 3.04327214 2.62068966 5.27837248 3.15373333"></polygon>
                                            <polygon id="leg-copy-2" transform="translate(2.905520, 3.630357) rotate(-9.000000) translate(-2.905520, -3.630357) " points="5.53050831 4.20851584 3.4984828 3.76499717 0.280532013 2.51953169 3.12065276 4.19837269 5.35656892 4.74118274"></polygon>
                                            <polygon id="leg-copy-3" transform="translate(15.877572, 3.581983) scale(-1, 1) rotate(-9.000000) translate(-15.877572, -3.581983) " points="18.5025604 4.16014121 16.4705349 3.71662255 13.2525841 2.47115706 16.0927049 4.14999807 18.328621 4.69280812"></polygon>
                                            <polygon id="leg-copy-4" transform="translate(3.457927, 5.898602) rotate(-29.000000) translate(-3.457927, -5.898602) " points="6.01987765 5.84846796 3.91074186 5.27148299 0.742407876 5.72095579 4.03705737 5.76916694 6.17344535 6.52572002"></polygon>
                                            <polygon id="leg-copy-6" transform="translate(5.122580, 6.856237) rotate(-45.000000) translate(-5.122580, -6.856237) " points="7.20752894 7.05269501 5.45727383 6.09803077 2.87790054 6.55227419 5.5623239 6.59932549 7.3672589 7.61444346"></polygon>
                                            <polygon id="leg-copy-5" transform="translate(15.403237, 5.866162) scale(-1, 1) rotate(-29.000000) translate(-15.403237, -5.866162) " points="17.9651881 5.81602815 15.8560523 5.23904318 12.6877183 5.68851598 15.9823678 5.73672713 18.1187558 6.4932802"></polygon>
                                            <polygon id="leg-copy-7" transform="translate(13.238234, 6.814080) scale(-1, 1) rotate(-45.000000) translate(-13.238234, -6.814080) " points="15.3231833 7.01053739 13.5729281 6.05587316 10.9935549 6.51011658 13.6779782 6.55716788 15.4829132 7.57228584"></polygon>
                                            <polygon id="leg-copy" transform="translate(15.167421, 1.551441) scale(-1, 1) translate(-15.167421, -1.551441) " points="17.365182 2.56983748 15.3336826 2.13516144 12.9696596 -1.10236483e-14 14.9537199 2.56983748 17.1888202 3.10288115"></polygon>
                                        </g>
                                    </g>
                                </g>
                            </g>
                        </g>
                    </g>
                </g>
            </g>
        </g>
    </g>
</svg>
